PathFileType	4	(X/Y/Z)
DataRate	CameraRate	NumFrames	NumMarkers	Units	OrigDataRate	OrigDataStartFrame	OrigNumFrames	
  120.0	  120.0	    6	     56	     mm	  120.0	      138	    551
Frame#	Time	LASI			RASI			LPSI			RPSI			RTH1			RTH2			RTH3			RLFC			RMFC			LTH1			LTH2			LTH3			LLFC			LMFC			RTB1			RTB2			RTB3			RLMAL			RMMAL			LTB1			LTB2			LTB3			LMMAL			LLMAL			RCAL			RTOE			RMT5			LCAL			LTOE			LMT5			LACR			RACR			CLAV			C7			LASH			LPSH			RASH			RPSH			RUA1			RUA2			RUA3			RLEL			RMEL			LUA1			LUA2			LUA3			LLEL			LMEL			RFAsuperior			RFAradius			RFAulna			LFAsuperior			LFAradius			LFAulna			RHJC			LHJC			
		X1	Y1	Z1	X2	Y2	Z2	X3	Y3	Z3	X4	Y4	Z4	X5	Y5	Z5	X6	Y6	Z6	X7	Y7	Z7	X8	Y8	Z8	X9	Y9	Z9	X10	Y10	Z10	X11	Y11	Z11	X12	Y12	Z12	X13	Y13	Z13	X14	Y14	Z14	X15	Y15	Z15	X16	Y16	Z16	X17	Y17	Z17	X18	Y18	Z18	X19	Y19	Z19	X20	Y20	Z20	X21	Y21	Z21	X22	Y22	Z22	X23	Y23	Z23	X24	Y24	Z24	X25	Y25	Z25	X26	Y26	Z26	X27	Y27	Z27	X28	Y28	Z28	X29	Y29	Z29	X30	Y30	Z30	X31	Y31	Z31	X32	Y32	Z32	X33	Y33	Z33	X34	Y34	Z34	X35	Y35	Z35	X36	Y36	Z36	X37	Y37	Z37	X38	Y38	Z38	X39	Y39	Z39	X40	Y40	Z40	X41	Y41	Z41	X42	Y42	Z42	X43	Y43	Z43	X44	Y44	Z44	X45	Y45	Z45	X46	Y46	Z46	X47	Y47	Z47	X48	Y48	Z48	X49	Y49	Z49	X50	Y50	Z50	X51	Y51	Z51	X52	Y52	Z52	X53	Y53	Z53	X54	Y54	Z54	X55	Y55	Z55	X56	Y56	Z56	

138	1.15000	568.79885	1026.62628	-696.53780	698.01372	1025.15011	-482.09797	464.95227	1046.25919	-536.63244	511.05038	1046.40345	-463.13564	677.77120	849.65175	-408.25995	699.83033	724.16634	-445.38587	622.80890	612.71434	-373.67079	634.17355	530.71431	-374.96275	548.59148	500.52246	-453.84250	494.19954	883.16431	-714.01159	529.42957	766.37824	-730.35215	447.59696	638.14518	-682.50616	436.14508	531.43676	-683.07240	507.35104	520.52173	-583.86816	632.52540	400.09006	-429.87838	636.18213	343.80752	-356.31801	609.62793	223.34003	-409.49268	590.83751	132.49594	-333.51342	566.95103	124.35137	-416.53692	494.64520	394.83272	-659.55936	421.58456	299.43564	-689.79707	468.17011	207.26179	-640.64778	463.08980	121.22855	-607.58826	391.84247	125.60787	-655.04517	513.84709	100.84878	-330.03368	688.69899	74.64862	-459.92068	716.82696	62.48018	-366.14885	361.83219	97.95564	-586.68437	543.48486	80.12551	-707.51460	470.67484	60.55316	-764.68882	439.68291	1470.31345	-676.61941	631.02887	1468.36361	-355.00731	637.76162	1455.72538	-549.51563	511.57914	1530.43595	-502.19388	519.02498	1443.92211	-683.44012	406.61759	1441.24219	-618.07191	682.22331	1444.97363	-405.44717	577.23920	1434.17986	-344.69914	682.23199	1373.07047	-289.16971	730.72657	1322.02185	-302.05605	685.54318	1276.31481	-221.51177	768.39060	1235.69184	-197.23714	718.23385	1172.55301	-236.20410	393.74942	1400.87602	-724.10193	368.84725	1312.31100	-709.82336	380.04229	1320.83899	-786.55268	353.69844	1233.99039	-856.35925	376.44390	1166.25686	-805.05349	835.12824	1242.84800	-246.65899	939.75996	1210.69816	-375.69852	967.01790	1183.33409	-321.42328	411.20923	1251.15316	-892.35907	582.80620	1230.89976	-942.93425	551.90387	1207.71387	-993.30252	629.20956	953.35310	-482.62054	538.24293	976.70596	-635.59397	
139	1.15833	569.14014	1026.54629	-696.70695	698.23214	1025.11031	-482.10285	464.92347	1046.33160	-536.68575	511.00818	1046.48618	-463.21209	677.59725	849.58983	-408.74018	699.95127	724.19048	-445.49966	622.75409	612.78089	-373.75944	634.12956	530.83860	-375.11482	548.94117	500.46005	-453.97864	494.58971	883.10876	-714.19867	529.82885	766.33780	-730.56418	447.98043	638.08993	-682.70047	436.53173	531.36639	-683.23673	507.37533	520.55116	-583.85244	632.86382	400.03696	-429.94631	635.94785	343.63200	-356.84826	609.98592	223.34641	-409.71659	590.57018	132.42835	-333.78356	567.25295	124.28486	-416.64460	495.23244	395.07789	-660.41710	421.87880	299.39455	-689.94471	468.46774	207.35481	-641.10936	464.18700	120.77537	-607.93049	392.08899	125.54339	-655.20710	514.04551	100.84540	-330.08982	688.95255	74.69501	-460.07901	716.97961	62.50588	-366.27953	361.80993	98.00886	-586.74065	543.59380	80.09429	-707.85186	470.86028	60.48037	-764.88590	439.88862	1470.30990	-676.73094	630.99838	1468.44661	-355.05366	637.89669	1455.74079	-549.66356	511.75864	1530.44725	-502.27834	519.46583	1443.83575	-683.94290	406.87719	1441.23799	-618.16458	682.33955	1444.99642	-405.57771	577.20672	1434.25607	-344.74994	682.19663	1373.15178	-289.22917	730.84076	1322.04420	-302.19016	685.50663	1276.39989	-221.56934	768.36264	1235.80133	-197.29968	718.43530	1172.53447	-236.17602	394.01597	1400.81075	-724.21823	369.65110	1312.16730	-710.02660	380.41442	1320.76312	-786.73138	354.11061	1233.91496	-856.57381	376.32341	1166.21177	-805.15945	835.26252	1242.92818	-246.73137	939.90396	1210.76410	-375.81557	966.92375	1183.36578	-321.80532	411.62681	1251.10324	-892.56212	583.14228	1230.93087	-943.05394	552.37596	1207.63821	-993.75147	629.28645	953.35531	-482.62700	538.45755	976.67694	-635.68716	
140	1.16667	569.40954	1026.48569	-696.84360	698.40783	1025.07853	-482.11221	464.88223	1046.40730	-536.75343	510.94711	1046.55256	-463.31052	677.39792	849.52558	-409.30915	700.02582	724.23530	-445.62959	622.66352	612.81252	-373.90409	633.99638	530.83625	-375.50663	549.16765	500.38660	-454.05535	494.87765	883.04335	-714.32105	530.13160	766.30705	-730.72333	448.25779	638.03615	-682.83108	436.81641	531.29989	-683.34137	507.36493	520.53637	-583.79998	633.14359	399.97842	-429.99658	635.66925	343.40175	-357.52609	610.23890	223.34723	-409.87332	590.27621	132.38753	-334.04306	567.44983	124.21467	-416.69703	495.67075	395.25749	-661.05325	422.05061	299.36045	-690.03591	468.69916	207.52791	-641.65783	464.95468	120.43756	-608.23299	392.21737	125.48561	-655.30826	514.18023	100.85308	-330.16077	689.13065	74.76878	-460.25352	717.07874	62.52232	-366.45031	361.77785	98.05579	-586.81103	543.65294	80.06182	-708.21872	470.90481	60.39527	-765.02198	440.05121	1470.32322	-676.83379	630.96366	1468.52539	-355.13601	637.99225	1455.78610	-549.83880	511.91402	1530.48215	-502.38044	519.79070	1443.78188	-684.28959	407.07820	1441.25338	-618.25786	682.41677	1445.04728	-405.75299	577.16471	1434.33682	-344.82838	682.15888	1373.23827	-289.30789	730.92480	1322.09084	-302.35580	685.45550	1276.48632	-221.65555	768.32877	1235.90977	-197.39410	718.59374	1172.51213	-236.13734	394.22499	1400.75839	-724.31756	370.20675	1312.01194	-710.14474	380.68797	1320.69067	-786.85061	354.43046	1233.84584	-856.73246	376.12693	1166.16951	-805.18483	835.35502	1243.01734	-246.83443	940.00153	1210.85936	-375.94208	966.80848	1183.39709	-322.28832	411.93613	1251.05186	-892.69055	583.40862	1230.99163	-943.18718	552.74019	1207.57720	-994.07831	629.32210	953.36238	-482.63348	538.63447	976.65658	-635.78206	
141	1.17500	569.55124	1026.46627	-696.91135	698.49836	1025.07134	-482.11230	464.84890	1046.44562	-536.79942	510.89406	1046.57056	-463.37835	677.26401	849.48576	-409.67517	700.04914	724.26816	-445.69761	622.58030	612.79854	-374.01939	633.85842	530.75020	-375.87506	549.26038	500.32911	-454.06949	495.01126	882.99698	-714.36771	530.28998	766.29359	-730.80466	448.38754	638.00153	-682.87915	436.94951	531.25835	-683.37491	507.33427	520.49343	-583.73288	633.29786	399.92516	-430.00215	635.48697	343.24163	-357.98410	610.35565	223.34293	-409.93184	590.09653	132.37012	-334.18097	567.53727	124.16255	-416.69959	495.87577	395.33747	-661.32813	422.11147	299.33846	-690.06910	468.80370	207.66040	-641.99583	465.28974	120.28606	-608.44439	392.25287	125.44486	-655.33345	514.23000	100.86262	-330.19679	689.19903	74.82768	-460.34966	717.10672	62.52745	-366.54977	361.73903	98.07651	-586.85321	543.66639	80.04514	-708.41525	470.88338	60.33127	-765.07068	440.13185	1470.33571	-676.88374	630.93640	1468.56721	-355.20123	638.03222	1455.83679	-549.93449	511.98119	1530.51354	-502.43737	519.94022	1443.77301	-684.41247	407.17127	1441.27010	-618.30722	682.45022	1445.09375	-405.85678	577.13393	1434.38469	-344.88224	682.13192	1373.29215	-289.35508	730.96549	1322.14175	-302.43472	685.41289	1276.53971	-221.71350	768.30144	1235.97366	-197.45698	718.67575	1172.50600	-236.09733	394.33109	1400.73030	-724.36666	370.43943	1311.93713	-710.19191	380.81939	1320.64786	-786.89484	354.59962	1233.80744	-856.80775	376.01150	1166.13475	-805.17602	835.39260	1243.08022	-246.88727	940.04443	1210.93629	-375.99609	966.73381	1183.42316	-322.59421	412.09315	1251.01785	-892.74101	583.55925	1231.03754	-943.25803	552.93704	1207.55499	-994.21279	629.33280	953.37038	-482.63705	538.73741	976.64968	-635.84293	
142	1.18333	569.52381	1026.50227	-696.88385	698.47587	1025.09904	-482.08765	464.84477	1046.43097	-536.79957	510.87777	1046.53919	-463.38210	677.25379	849.48457	-409.65948	700.02117	724.27068	-445.66930	622.55146	612.75557	-374.03729	633.82519	530.69322	-375.94717	549.22220	500.32135	-454.03091	494.96317	883.00303	-714.34055	530.26648	766.30453	-730.79030	448.34567	638.00603	-682.83876	436.90487	531.26531	-683.34170	507.30534	520.45306	-583.67359	633.27139	399.89413	-429.94646	635.49132	343.23492	-357.98055	610.31605	223.33574	-409.87593	590.11988	132.37938	-334.13295	567.51399	124.15544	-416.66657	495.79402	395.29840	-661.16306	422.07769	299.34008	-690.04203	468.75267	207.67761	-641.93823	465.14977	120.36167	-608.47151	392.22184	125.44118	-655.28569	514.18568	100.86954	-330.17244	689.14703	74.85438	-460.31285	717.06231	62.52869	-366.50840	361.71103	98.06685	-586.84196	543.64379	80.05478	-708.33027	470.86267	60.32767	-765.02420	440.10931	1470.34704	-676.85577	630.92938	1468.56462	-355.20621	638.01071	1455.87765	-549.88793	511.92336	1530.52993	-502.40739	519.88053	1443.81556	-684.28057	407.12997	1441.28908	-618.28490	682.43901	1445.11888	-405.81317	577.13432	1434.38521	-344.87628	682.12791	1373.29615	-289.34014	730.95436	1322.18243	-302.36165	685.40299	1276.54748	-221.70358	768.29412	1235.97814	-197.44486	718.66199	1172.53488	-236.06485	394.30870	1400.74413	-724.34436	370.33318	1312.00218	-710.18278	380.78636	1320.66213	-786.85764	354.58289	1233.82368	-856.78270	376.07805	1166.12552	-805.17127	835.37539	1243.10863	-246.83356	940.03232	1210.96846	-375.93491	966.74364	1183.44357	-322.55288	412.07168	1251.02727	-892.70575	583.56251	1231.05477	-943.21563	552.93164	1207.58633	-994.12329	629.32474	953.38163	-482.62938	538.73837	976.66466	-635.84022	
143	1.19167	569.31333	1026.58843	-696.75733	698.33741	1025.15741	-482.03765	464.87532	1046.38080	-536.76186	510.90752	1046.48535	-463.33305	677.35287	849.51334	-409.33077	699.94106	724.25232	-445.57894	622.59311	612.71436	-373.96286	633.92584	530.72170	-375.69518	549.04669	500.37939	-453.95145	494.73333	883.07381	-714.24479	530.03827	766.34145	-730.67003	448.12325	638.05715	-682.71324	436.67807	531.33017	-683.24916	507.30462	520.44395	-583.66164	633.04025	399.90237	-429.83254	635.65582	343.36019	-357.58194	610.10468	223.32662	-409.70485	590.32791	132.42808	-333.92038	567.36184	124.20798	-416.60617	495.41278	395.13638	-660.55770	421.93980	299.37496	-689.95130	468.55718	207.60388	-641.54038	464.51576	120.67150	-608.25363	392.11205	125.49195	-655.17828	514.04351	100.88004	-330.10831	688.97877	74.86352	-460.16668	716.95166	62.53552	-366.35541	361.71216	98.03991	-586.79041	543.58443	80.08684	-708.02343	470.83455	60.39927	-764.89409	439.98464	1470.37385	-676.76036	630.94675	1468.53764	-355.15213	637.92849	1455.91476	-549.72538	511.74615	1530.54237	-502.30399	519.60743	1443.90831	-683.90320	406.95709	1441.32620	-618.20101	682.37873	1445.13470	-405.64499	577.16788	1434.35407	-344.81970	682.14951	1373.26572	-289.27670	730.88853	1322.21460	-302.17598	685.43381	1276.52611	-221.63414	768.31211	1235.94503	-197.36826	718.55032	1172.60178	-236.04489	394.15751	1400.81082	-724.25426	369.90153	1312.18208	-710.10609	380.58755	1320.74230	-786.74139	354.37293	1233.90150	-856.65581	376.29475	1166.16270	-805.16456	835.30809	1243.12367	-246.69310	939.96521	1210.96912	-375.78692	966.83169	1183.46282	-322.22741	411.86472	1251.09434	-892.57402	583.40638	1231.07124	-943.07413	552.71833	1207.66789	-993.82119	629.28310	953.40162	-482.60421	538.62714	976.70492	-635.77083	
